<svg xmlns="http://www.w3.org/2000/svg" style="display: none">
  <symbol id="link">
    <svg class="w-6 h-6 text-gray-800 dark:text-white" fill="none" viewBox="0 0 24 24">
      <path stroke="currentColor" stroke-linecap="round" stroke-linejoin="round" stroke-width="2" d="M13.213 9.787a3.391 3.391 0 0 0-4.795 0l-3.425 3.426a3.39 3.39 0 0 0 4.795 4.794l.321-.304m-.321-4.49a3.39 3.39 0 0 0 4.795 0l3.424-3.426a3.39 3.39 0 0 0-4.794-4.795l-1.028.961"/>
    </svg>
  </symbol>
  <symbol id="text">
    <svg class="w-6 h-6 text-gray-800 dark:text-white" fill="none" viewBox="0 0 24 24">
      <path stroke="currentColor" stroke-linecap="round" stroke-linejoin="round" stroke-width="2" d="M3 6.2V5h11v1.2M8 5v14m-3 0h6m2-6.8V11h8v1.2M17 11v8m-1.5 0h3"/>
    </svg>
  </symbol>
  <symbol id="image">
    <svg class="w-6 h-6 text-gray-800 dark:text-white" fill="none" viewBox="0 0 24 24">
      <path stroke="currentColor" stroke-linecap="round" stroke-linejoin="round" stroke-width="2" d="m3 16 5-7 6 6.5m6.5 2.5L16 13l-4.286 6M14 10h.01M4 19h16a1 1 0 0 0 1-1V6a1 1 0 0 0-1-1H4a1 1 0 0 0-1 1v12a1 1 0 0 0 1 1Z"/>
    </svg>
  </symbol>
  <symbol id="row">
    <svg class="w-6 h-6 text-gray-800 dark:text-white" fill="none" viewBox="0 0 24 24">
      <path stroke="currentColor" stroke-linecap="square" stroke-linejoin="round" stroke-width="2" d="M16.5 15v1.5m0 0V18m0-1.5H15m1.5 0H18M3 9V6a1 1 0 0 1 1-1h14a1 1 0 0 1 1 1v3M3 9v6a1 1 0 0 0 1 1h5M3 9h16m0 0v1M6 12h3m12 4.5a4.5 4.5 0 1 1-9 0 4.5 4.5 0 0 1 9 0Z"/>
    </svg>
  </symbol>
  <symbol id="column">
    <svg class="w-6 h-6 text-gray-800 dark:text-white" fill="none" viewBox="0 0 24 24">
      <path stroke="currentColor" stroke-linecap="round" stroke-linejoin="round" stroke-width="2" d="M15 5v14M9 5v14M4 5h16a1 1 0 0 1 1 1v12a1 1 0 0 1-1 1H4a1 1 0 0 1-1-1V6a1 1 0 0 1 1-1Z"/>
    </svg>
  </symbol>
  <symbol id="plus">
    <svg class="w-6 h-6 text-gray-800 dark:text-white" fill="none" viewBox="0 0 24 24">
      <path stroke="currentColor" stroke-linecap="round" stroke-linejoin="round" stroke-width="2" d="M5 12h14m-7 7V5"/>
    </svg>
  </symbol>
  <symbol id="divider">
    <svg class="w-6 h-6 text-gray-800 dark:text-white" fill="none" viewBox="0 0 24 24">
      <path stroke="currentColor" stroke-linecap="round" stroke-width="2" d="M5 12h14"/>
      <path stroke="currentColor" stroke-linecap="round" d="M6 9.5h12m-12-2h12m-12-2h12m-12 13h12m-12-2h12m-12-2h12"/>
    </svg>
  </symbol>
  <symbol id="background-shape">
    <svg class="w-6 h-6 text-gray-800 dark:text-white" fill="none" viewBox="0 0 24 24">
      <path stroke="currentColor" stroke-linejoin="round" stroke-width="2" d="M4.07141 14v6h5.99999v-6H4.07141Zm4.5-4h6.99999l-3.5-6-3.49999 6Zm7.99999 10c1.933 0 3.5-1.567 3.5-3.5s-1.567-3.5-3.5-3.5-3.5 1.567-3.5 3.5 1.567 3.5 3.5 3.5Z"/>
    </svg>
  </symbol>
  <symbol id="heading">
    <svg viewBox="0 0 24 24" fill="none">
      <g id="bgCarrier" stroke-width="0"></g><g id="tracerCarrier" stroke-linecap="round" stroke-linejoin="round">
      </g>
      <g id="iconCarrier"> 
        <g> 
          <path id="Vector" d="M7 5V12M7 12V19M7 12H17M17 5V12M17 12V19" stroke="#000000" stroke-width="2" stroke-linecap="round" stroke-linejoin="round">
          </path>
        </g>
      </g>
    </svg>
  </symbol>
</svg>
